<svg class="animated_badge_svg" width="75" height="100" viewBox="0 0 75 100" fill="none" xmlns="http://www.w3.org/2000/svg">
        <path class="badge_ribbon" d="M16 86.7506V62C16 59.2386 18.2386 57 21 57H55C57.7614 57 60 59.2386 60 62V86.8112C60 88.7561 58.8722 90.5246 57.1087 91.3448L40.5616 99.0411C39.2517 99.6504 37.7424 99.6633 36.4223 99.0766L18.9693 91.3197C17.1637 90.5172 16 88.7266 16 86.7506Z" fill="#71A1F4"></path>
        <path class="badge_ribbon" d="M16 86.7506V62C16 59.2386 18.2386 57 21 57H55C57.7614 57 60 59.2386 60 62V86.8112C60 88.7561 58.8722 90.5246 57.1087 91.3448L40.5616 99.0411C39.2517 99.6504 37.7424 99.6633 36.4223 99.0766L18.9693 91.3197C17.1637 90.5172 16 88.7266 16 86.7506Z" fill="#71A1F4"></path>
        <path class="badge_ribbon" d="M16 86.7506V62C16 59.2386 18.2386 57 21 57H55C57.7614 57 60 59.2386 60 62V86.8112C60 88.7561 58.8722 90.5246 57.1087 91.3448L40.5616 99.0411C39.2517 99.6504 37.7424 99.6633 36.4223 99.0766L18.9693 91.3197C17.1637 90.5172 16 88.7266 16 86.7506Z" fill="url(#paint0_linear)"></path>
        <mask id="mask0" mask-type="alpha" maskUnits="userSpaceOnUse" x="16" y="57" width="44" height="43">
            <path d="M16 86.7506V62C16 59.2386 18.2386 57 21 57H55C57.7614 57 60 59.2386 60 62V86.8112C60 88.7561 58.8722 90.5246 57.1087 91.3448L40.5616 99.0411C39.2517 99.6504 37.7424 99.6633 36.4223 99.0766L18.9693 91.3197C17.1637 90.5172 16 88.7266 16 86.7506Z" fill="#71A1F4"></path>
            <path d="M16 86.7506V62C16 59.2386 18.2386 57 21 57H55C57.7614 57 60 59.2386 60 62V86.8112C60 88.7561 58.8722 90.5246 57.1087 91.3448L40.5616 99.0411C39.2517 99.6504 37.7424 99.6633 36.4223 99.0766L18.9693 91.3197C17.1637 90.5172 16 88.7266 16 86.7506Z" fill="url(#paint1_linear)"></path>
        </mask>
        <g class="badge_ribbon" mask="url(#mask0)">
            <rect x="23" y="60" width="8" height="34" fill="#ABC7F9"></rect>
            <rect x="43" y="60" width="8" height="34" fill="#ABC7F9"></rect>
        </g>
        <circle cx="37.5" cy="37.5" r="33.5" fill="#C0C6CF" stroke="#C0C6CF" stroke-width="8"></circle>
        <circle class="badge_circle" cx="37.5" cy="37.5" r="29.5" fill="#C0C6CF" stroke="#EAEDF2" stroke-width="4"></circle>
        </svg>